<mxfile host="app.diagrams.net" modified="2024-07-29T03:55:52.118Z" agent="Mozilla/5.0 (X11; Linux x86_64) AppleWebKit/537.36 (KHTML, like Gecko) Chrome/126.0.0.0 Safari/537.36" version="24.0.4" etag="30R-4-QwlOmjXU9mVkmB" type="github">
  <diagram name="Page-1" id="Bsfz14v9iKRs8q2ONpN3">
    <mxGraphModel>
      <root>
        <mxCell id="0" />
        <mxCell id="1" parent="0" />
      </root>
    </mxGraphModel>
  </diagram>
</mxfile>
